<svg width="1539" height="808" viewBox="0 0 1539 808" fill="none" xmlns="http://www.w3.org/2000/svg">
<g clip-path="url(#clip0_43_314)">
<g opacity="0.37" filter="url(#filter0_f_43_314)">
<path fill-rule="evenodd" clip-rule="evenodd" d="M94.2151 329.719C118.116 317.048 139.277 287.239 164.765 296.296C190.258 305.356 192.538 340.336 198.402 366.744C203.064 387.744 203.126 409.123 194.158 428.679C185.438 447.696 170.195 462.917 150.753 470.65C131.368 478.361 111.115 473.425 90.5562 469.888C59.4327 464.534 16.3785 473.724 2.82866 445.203C-10.6093 416.917 20.1717 387.205 39.6071 362.644C53.3183 345.318 74.6922 340.068 94.2151 329.719Z" fill="url(#paint0_linear_43_314)"/>
</g>
<g opacity="0.38" filter="url(#filter1_f_43_314)">
<path fill-rule="evenodd" clip-rule="evenodd" d="M1394.23 457.515C1425.5 440.936 1453.19 401.929 1486.54 413.782C1519.9 425.636 1522.88 471.407 1530.56 505.963C1536.66 533.442 1536.74 561.417 1525 587.005C1513.59 611.889 1493.65 631.806 1468.21 641.925C1442.84 652.014 1416.34 645.555 1389.44 640.928C1348.71 633.922 1292.38 645.947 1274.65 608.626C1257.06 571.614 1297.34 532.736 1322.77 500.598C1340.71 477.926 1368.68 471.057 1394.23 457.515Z" fill="url(#paint1_linear_43_314)"/>
</g>
</g>
<defs>
<filter id="filter0_f_43_314" x="-250.464" y="44.6113" width="701.978" height="680.123" filterUnits="userSpaceOnUse" color-interpolation-filters="sRGB">
<feFlood flood-opacity="0" result="BackgroundImageFix"/>
<feBlend mode="normal" in="SourceGraphic" in2="BackgroundImageFix" result="shape"/>
<feGaussianBlur stdDeviation="125" result="effect1_foregroundBlur_43_314"/>
</filter>
<filter id="filter1_f_43_314" x="1020.34" y="161.576" width="764.289" height="735.692" filterUnits="userSpaceOnUse" color-interpolation-filters="sRGB">
<feFlood flood-opacity="0" result="BackgroundImageFix"/>
<feBlend mode="normal" in="SourceGraphic" in2="BackgroundImageFix" result="shape"/>
<feGaussianBlur stdDeviation="125" result="effect1_foregroundBlur_43_314"/>
</filter>
<linearGradient id="paint0_linear_43_314" x1="85.4878" y1="394.414" x2="304.723" y2="373.85" gradientUnits="userSpaceOnUse">
<stop stop-color="#FFED8F"/>
<stop offset="1" stop-color="#C4C4C4" stop-opacity="0"/>
</linearGradient>
<linearGradient id="paint1_linear_43_314" x1="1382.81" y1="542.169" x2="1669.68" y2="515.261" gradientUnits="userSpaceOnUse">
<stop stop-color="#FFED8F"/>
<stop offset="1" stop-color="#C4C4C4" stop-opacity="0"/>
</linearGradient>
<clipPath id="clip0_43_314">
<rect width="1539" height="808" fill="white"/>
</clipPath>
</defs>
</svg>
