<svg width="157" height="121" viewBox="0 0 157 121" fill="none" xmlns="http://www.w3.org/2000/svg">
<path d="M143.939 120.061C144.525 120.646 145.475 120.646 146.061 120.061L155.607 110.515C156.192 109.929 156.192 108.979 155.607 108.393C155.021 107.808 154.071 107.808 153.485 108.393L145 116.879L136.515 108.393C135.929 107.808 134.979 107.808 134.393 108.393C133.808 108.979 133.808 109.929 134.393 110.515L143.939 120.061ZM134.456 12.5442L133.395 13.6048L134.456 12.5442ZM0 3.5H73V0.5H0V3.5ZM143.5 74V119H146.5V74H143.5ZM73 3.5C90.013 3.5 102.622 3.50319 112.302 4.80464C121.939 6.1003 128.448 8.65789 133.395 13.6048L135.516 11.4835C129.919 5.88626 122.671 3.17178 112.702 1.8314C102.775 0.496814 89.9282 0.5 73 0.5V3.5ZM146.5 74C146.5 57.0718 146.503 44.2248 145.169 34.2983C143.828 24.3287 141.114 17.0807 135.516 11.4835L133.395 13.6048C138.342 18.5517 140.9 25.0611 142.195 34.6981C143.497 44.3782 143.5 56.987 143.5 74H146.5Z" fill="white"/>
</svg>
