<svg width="1539" height="3199" viewBox="0 0 1539 3199" fill="none" xmlns="http://www.w3.org/2000/svg">
<g clip-path="url(#clip0_52_612)">
<g opacity="0.2" filter="url(#filter0_f_52_612)">
<path fill-rule="evenodd" clip-rule="evenodd" d="M1258.82 -19.2518C1309.99 -46.3802 1355.3 -110.207 1409.87 -90.8129C1464.46 -71.4154 1469.34 3.48059 1481.89 60.0247C1491.88 104.988 1492.01 150.763 1472.81 192.633C1454.14 233.351 1421.5 265.942 1379.87 282.5C1338.37 299.009 1295 288.44 1250.98 280.868C1184.34 269.404 1092.16 289.08 1063.15 228.013C1034.38 167.45 1100.28 103.832 1141.9 51.2458C1171.25 14.1474 1217.02 2.90744 1258.82 -19.2518Z" fill="url(#paint0_linear_52_612)"/>
</g>
<g opacity="0.06" filter="url(#filter1_f_52_612)">
<path fill-rule="evenodd" clip-rule="evenodd" d="M113.818 663.748C164.993 636.62 210.302 572.793 264.874 592.187C319.457 611.585 324.339 686.481 336.894 743.025C346.877 787.988 347.009 833.763 327.809 875.633C309.136 916.351 276.499 948.942 234.872 965.5C193.367 982.009 150.002 971.44 105.984 963.868C39.3449 952.404 -52.8392 972.08 -81.8511 911.013C-110.623 850.45 -44.7176 786.832 -3.10402 734.246C26.2533 697.147 72.0173 685.907 113.818 663.748Z" fill="url(#paint1_linear_52_612)"/>
</g>
<g opacity="0.06" filter="url(#filter2_f_52_612)">
<path fill-rule="evenodd" clip-rule="evenodd" d="M1405.82 1389.75C1456.99 1362.62 1502.3 1298.79 1556.87 1318.19C1611.46 1337.58 1616.34 1412.48 1628.89 1469.02C1638.88 1513.99 1639.01 1559.76 1619.81 1601.63C1601.14 1642.35 1568.5 1674.94 1526.87 1691.5C1485.37 1708.01 1442 1697.44 1397.98 1689.87C1331.34 1678.4 1239.16 1698.08 1210.15 1637.01C1181.38 1576.45 1247.28 1512.83 1288.9 1460.25C1318.25 1423.15 1364.02 1411.91 1405.82 1389.75Z" fill="url(#paint2_linear_52_612)"/>
</g>
<g opacity="0.06" filter="url(#filter3_f_52_612)">
<path fill-rule="evenodd" clip-rule="evenodd" d="M140.818 1844.75C191.993 1817.62 237.302 1753.79 291.874 1773.19C346.457 1792.58 351.339 1867.48 363.894 1924.02C373.877 1968.99 374.009 2014.76 354.809 2056.63C336.136 2097.35 303.499 2129.94 261.872 2146.5C220.367 2163.01 177.002 2152.44 132.984 2144.87C66.3449 2133.4 -25.8392 2153.08 -54.8511 2092.01C-83.6233 2031.45 -17.7176 1967.83 23.896 1915.25C53.2533 1878.15 99.0173 1866.91 140.818 1844.75Z" fill="url(#paint3_linear_52_612)"/>
</g>
<g opacity="0.06" filter="url(#filter4_f_52_612)">
<path fill-rule="evenodd" clip-rule="evenodd" d="M1061.82 600.748C1112.99 573.62 1158.3 509.793 1212.87 529.187C1267.46 548.585 1272.34 623.481 1284.89 680.025C1294.88 724.988 1295.01 770.763 1275.81 812.633C1257.14 853.351 1224.5 885.942 1182.87 902.5C1141.37 919.009 1098 908.44 1053.98 900.868C987.345 889.404 895.161 909.08 866.149 848.013C837.377 787.45 903.282 723.832 944.896 671.246C974.253 634.147 1020.02 622.907 1061.82 600.748Z" fill="url(#paint4_linear_52_612)"/>
</g>
<g opacity="0.02" filter="url(#filter5_f_52_612)">
<path fill-rule="evenodd" clip-rule="evenodd" d="M1415.82 2912.75C1466.99 2885.62 1512.3 2821.79 1566.87 2841.19C1621.46 2860.58 1626.34 2935.48 1638.89 2992.02C1648.88 3036.99 1649.01 3082.76 1629.81 3124.63C1611.14 3165.35 1578.5 3197.94 1536.87 3214.5C1495.37 3231.01 1452 3220.44 1407.98 3212.87C1341.34 3201.4 1249.16 3221.08 1220.15 3160.01C1191.38 3099.45 1257.28 3035.83 1298.9 2983.25C1328.25 2946.15 1374.02 2934.91 1415.82 2912.75Z" fill="url(#paint5_linear_52_612)"/>
</g>
<g opacity="0.17" filter="url(#filter6_f_52_612)">
<path fill-rule="evenodd" clip-rule="evenodd" d="M768.944 2728.78C798.224 2713.26 824.147 2676.74 855.371 2687.84C886.601 2698.94 889.394 2741.79 896.577 2774.14C902.289 2799.87 902.365 2826.06 891.379 2850.01C880.696 2873.31 862.022 2891.96 838.205 2901.43C814.458 2910.88 789.647 2904.83 764.462 2900.5C726.334 2893.94 673.591 2905.2 656.992 2870.26C640.529 2835.6 678.238 2799.21 702.047 2769.12C718.844 2747.89 745.028 2741.46 768.944 2728.78Z" fill="url(#paint6_linear_52_612)"/>
</g>
</g>
<defs>
<filter id="filter0_f_52_612" x="806.099" y="-344.421" width="932.458" height="885.665" filterUnits="userSpaceOnUse" color-interpolation-filters="sRGB">
<feFlood flood-opacity="0" result="BackgroundImageFix"/>
<feBlend mode="normal" in="SourceGraphic" in2="BackgroundImageFix" result="shape"/>
<feGaussianBlur stdDeviation="125" result="effect1_foregroundBlur_52_612"/>
</filter>
<filter id="filter1_f_52_612" x="-338.901" y="338.579" width="932.458" height="885.665" filterUnits="userSpaceOnUse" color-interpolation-filters="sRGB">
<feFlood flood-opacity="0" result="BackgroundImageFix"/>
<feBlend mode="normal" in="SourceGraphic" in2="BackgroundImageFix" result="shape"/>
<feGaussianBlur stdDeviation="125" result="effect1_foregroundBlur_52_612"/>
</filter>
<filter id="filter2_f_52_612" x="953.099" y="1064.58" width="932.458" height="885.665" filterUnits="userSpaceOnUse" color-interpolation-filters="sRGB">
<feFlood flood-opacity="0" result="BackgroundImageFix"/>
<feBlend mode="normal" in="SourceGraphic" in2="BackgroundImageFix" result="shape"/>
<feGaussianBlur stdDeviation="125" result="effect1_foregroundBlur_52_612"/>
</filter>
<filter id="filter3_f_52_612" x="-311.901" y="1519.58" width="932.458" height="885.665" filterUnits="userSpaceOnUse" color-interpolation-filters="sRGB">
<feFlood flood-opacity="0" result="BackgroundImageFix"/>
<feBlend mode="normal" in="SourceGraphic" in2="BackgroundImageFix" result="shape"/>
<feGaussianBlur stdDeviation="125" result="effect1_foregroundBlur_52_612"/>
</filter>
<filter id="filter4_f_52_612" x="609.099" y="275.579" width="932.458" height="885.665" filterUnits="userSpaceOnUse" color-interpolation-filters="sRGB">
<feFlood flood-opacity="0" result="BackgroundImageFix"/>
<feBlend mode="normal" in="SourceGraphic" in2="BackgroundImageFix" result="shape"/>
<feGaussianBlur stdDeviation="125" result="effect1_foregroundBlur_52_612"/>
</filter>
<filter id="filter5_f_52_612" x="963.099" y="2587.58" width="932.458" height="885.665" filterUnits="userSpaceOnUse" color-interpolation-filters="sRGB">
<feFlood flood-opacity="0" result="BackgroundImageFix"/>
<feBlend mode="normal" in="SourceGraphic" in2="BackgroundImageFix" result="shape"/>
<feGaussianBlur stdDeviation="125" result="effect1_foregroundBlur_52_612"/>
</filter>
<filter id="filter6_f_52_612" x="402.958" y="2435.77" width="747.432" height="720.659" filterUnits="userSpaceOnUse" color-interpolation-filters="sRGB">
<feFlood flood-opacity="0" result="BackgroundImageFix"/>
<feBlend mode="normal" in="SourceGraphic" in2="BackgroundImageFix" result="shape"/>
<feGaussianBlur stdDeviation="125" result="effect1_foregroundBlur_52_612"/>
</filter>
<linearGradient id="paint0_linear_52_612" x1="1240.13" y1="119.268" x2="1709.54" y2="75.2392" gradientUnits="userSpaceOnUse">
<stop stop-color="#FFED8F"/>
<stop offset="1" stop-color="#C4C4C4" stop-opacity="0"/>
</linearGradient>
<linearGradient id="paint1_linear_52_612" x1="95.1319" y1="802.268" x2="564.539" y2="758.239" gradientUnits="userSpaceOnUse">
<stop stop-color="#FFED8F"/>
<stop offset="1" stop-color="#C4C4C4" stop-opacity="0"/>
</linearGradient>
<linearGradient id="paint2_linear_52_612" x1="1387.13" y1="1528.27" x2="1856.54" y2="1484.24" gradientUnits="userSpaceOnUse">
<stop stop-color="#FFED8F"/>
<stop offset="1" stop-color="#C4C4C4" stop-opacity="0"/>
</linearGradient>
<linearGradient id="paint3_linear_52_612" x1="122.132" y1="1983.27" x2="591.539" y2="1939.24" gradientUnits="userSpaceOnUse">
<stop stop-color="#FFED8F"/>
<stop offset="1" stop-color="#C4C4C4" stop-opacity="0"/>
</linearGradient>
<linearGradient id="paint4_linear_52_612" x1="1043.13" y1="739.268" x2="1512.54" y2="695.239" gradientUnits="userSpaceOnUse">
<stop stop-color="#FFED8F"/>
<stop offset="1" stop-color="#C4C4C4" stop-opacity="0"/>
</linearGradient>
<linearGradient id="paint5_linear_52_612" x1="1397.13" y1="3051.27" x2="1866.54" y2="3007.24" gradientUnits="userSpaceOnUse">
<stop stop-color="#FFED8F"/>
<stop offset="1" stop-color="#C4C4C4" stop-opacity="0"/>
</linearGradient>
<linearGradient id="paint6_linear_52_612" x1="758.253" y1="2808.04" x2="1026.83" y2="2782.85" gradientUnits="userSpaceOnUse">
<stop stop-color="#FFED8F"/>
<stop offset="1" stop-color="#C4C4C4" stop-opacity="0"/>
</linearGradient>
<clipPath id="clip0_52_612">
<rect width="1539" height="3199" fill="white"/>
</clipPath>
</defs>
</svg>
